<svg width="320" height="18" viewBox="0 0 320 18" fill="none" xmlns="http://www.w3.org/2000/svg">
<path d="M5.59419 1.736C6.67152 1.736 7.63152 1.98133 8.47419 2.472C9.31685 2.952 9.96752 3.624 10.4262 4.488C10.8955 5.34133 11.1302 6.31733 11.1302 7.416C11.1302 8.51467 10.8955 9.496 10.4262 10.36C9.96752 11.2133 9.31685 11.8853 8.47419 12.376C7.63152 12.856 6.67152 13.096 5.59419 13.096C4.50619 13.096 3.54085 12.856 2.69819 12.376C1.85552 11.8853 1.19952 11.2133 0.730188 10.36C0.260854 9.496 0.0261875 8.51467 0.0261875 7.416C0.0261875 6.31733 0.260854 5.34133 0.730188 4.488C1.19952 3.624 1.85552 2.952 2.69819 2.472C3.54085 1.98133 4.50619 1.736 5.59419 1.736ZM5.59419 2.376C4.60219 2.376 3.73819 2.58933 3.00219 3.016C2.26619 3.432 1.70085 4.01867 1.30619 4.776C0.911521 5.53333 0.714188 6.41333 0.714188 7.416C0.714188 8.408 0.911521 9.288 1.30619 10.056C1.70085 10.8133 2.26619 11.4053 3.00219 11.832C3.73819 12.2587 4.60219 12.472 5.59419 12.472C6.57552 12.472 7.42885 12.2587 8.15419 11.832C8.89019 11.4053 9.45552 10.8133 9.85019 10.056C10.2449 9.288 10.4422 8.408 10.4422 7.416C10.4422 6.41333 10.2449 5.53333 9.85019 4.776C9.45552 4.01867 8.89019 3.432 8.15419 3.016C7.42885 2.58933 6.57552 2.376 5.59419 2.376ZM5.56219 3.704C4.92219 3.704 4.33552 3.85333 3.80219 4.152C3.27952 4.45067 2.86352 4.88267 2.55419 5.448C2.24485 6.00267 2.09019 6.65333 2.09019 7.4C2.09019 8.14667 2.24485 8.80267 2.55419 9.368C2.86352 9.92267 3.27952 10.3547 3.80219 10.664C4.33552 10.9627 4.92219 11.112 5.56219 11.112C6.36219 11.112 7.05552 10.8987 7.64219 10.472C8.22885 10.0347 8.62885 9.45333 8.84219 8.728H7.49819C7.17819 9.61333 6.53285 10.056 5.56219 10.056C4.92219 10.056 4.39952 9.82667 3.99419 9.368C3.58885 8.90933 3.38619 8.25867 3.38619 7.416C3.38619 6.56267 3.58885 5.90667 3.99419 5.448C4.39952 4.98933 4.92219 4.76 5.56219 4.76C6.03152 4.76 6.43685 4.87733 6.77819 5.112C7.11952 5.336 7.35952 5.66133 7.49819 6.088H8.84219C8.63952 5.33067 8.24485 4.744 7.65819 4.328C7.07152 3.912 6.37285 3.704 5.56219 3.704ZM16.9957 11.832C18.3504 10.744 19.4117 9.85333 20.1797 9.16C20.9477 8.456 21.593 7.72533 22.1157 6.968C22.649 6.2 22.9157 5.448 22.9157 4.712C22.9157 4.01867 22.745 3.47467 22.4037 3.08C22.073 2.67467 21.5344 2.472 20.7877 2.472C20.0624 2.472 19.497 2.70133 19.0917 3.16C18.697 3.608 18.4837 4.21067 18.4517 4.968H17.0437C17.0864 3.77333 17.449 2.85067 18.1317 2.2C18.8144 1.54933 19.6944 1.224 20.7717 1.224C21.8704 1.224 22.7397 1.528 23.3797 2.136C24.0304 2.744 24.3557 3.58133 24.3557 4.648C24.3557 5.53333 24.089 6.39733 23.5557 7.24C23.033 8.072 22.4357 8.808 21.7637 9.448C21.0917 10.0773 20.233 10.8133 19.1877 11.656H24.6917V12.872H16.9957V11.832ZM26.3748 7.096C26.3748 5.26133 26.6735 3.832 27.2708 2.808C27.8681 1.77333 28.9135 1.256 30.4068 1.256C31.8895 1.256 32.9295 1.77333 33.5268 2.808C34.1241 3.832 34.4228 5.26133 34.4228 7.096C34.4228 8.96267 34.1241 10.4133 33.5268 11.448C32.9295 12.4827 31.8895 13 30.4068 13C28.9135 13 27.8681 12.4827 27.2708 11.448C26.6735 10.4133 26.3748 8.96267 26.3748 7.096ZM32.9828 7.096C32.9828 6.168 32.9188 5.384 32.7908 4.744C32.6735 4.09333 32.4228 3.57067 32.0388 3.176C31.6655 2.78133 31.1215 2.584 30.4068 2.584C29.6815 2.584 29.1268 2.78133 28.7428 3.176C28.3695 3.57067 28.1188 4.09333 27.9908 4.744C27.8735 5.384 27.8148 6.168 27.8148 7.096C27.8148 8.056 27.8735 8.86133 27.9908 9.512C28.1188 10.1627 28.3695 10.6853 28.7428 11.08C29.1268 11.4747 29.6815 11.672 30.4068 11.672C31.1215 11.672 31.6655 11.4747 32.0388 11.08C32.4228 10.6853 32.6735 10.1627 32.7908 9.512C32.9188 8.86133 32.9828 8.056 32.9828 7.096ZM36.2457 11.832C37.6004 10.744 38.6617 9.85333 39.4297 9.16C40.1977 8.456 40.843 7.72533 41.3657 6.968C41.899 6.2 42.1657 5.448 42.1657 4.712C42.1657 4.01867 41.995 3.47467 41.6537 3.08C41.323 2.67467 40.7844 2.472 40.0377 2.472C39.3124 2.472 38.747 2.70133 38.3417 3.16C37.947 3.608 37.7337 4.21067 37.7017 4.968H36.2937C36.3364 3.77333 36.699 2.85067 37.3817 2.2C38.0644 1.54933 38.9444 1.224 40.0217 1.224C41.1204 1.224 41.9897 1.528 42.6297 2.136C43.2804 2.744 43.6057 3.58133 43.6057 4.648C43.6057 5.53333 43.339 6.39733 42.8057 7.24C42.283 8.072 41.6857 8.808 41.0137 9.448C40.3417 10.0773 39.483 10.8133 38.4377 11.656H43.9417V12.872H36.2457V11.832ZM45.2408 2.76V1.432H48.2488V13H46.7768V2.76H45.2408ZM61.8474 10.52H56.9834L56.0874 13H54.5514L58.5834 1.912H60.2634L64.2794 13H62.7434L61.8474 10.52ZM61.4314 9.336L59.4154 3.704L57.3994 9.336H61.4314ZM67.4927 1.16V13H66.0367V1.16H67.4927ZM71.4302 1.16V13H69.9742V1.16H71.4302ZM84.0493 13L81.3933 8.44H79.6333V13H78.1773V1.848H81.7773C82.62 1.848 83.3293 1.992 83.9053 2.28C84.492 2.568 84.9293 2.95733 85.2173 3.448C85.5053 3.93867 85.6493 4.49867 85.6493 5.128C85.6493 5.896 85.4253 6.57333 84.9773 7.16C84.54 7.74667 83.8786 8.136 82.9933 8.328L85.7933 13H84.0493ZM79.6333 7.272H81.7773C82.5666 7.272 83.1586 7.08 83.5533 6.696C83.948 6.30133 84.1453 5.77867 84.1453 5.128C84.1453 4.46667 83.948 3.95467 83.5533 3.592C83.1693 3.22933 82.5773 3.048 81.7773 3.048H79.6333V7.272ZM88.6637 2.808C88.3864 2.808 88.1517 2.712 87.9597 2.52C87.7677 2.328 87.6717 2.09333 87.6717 1.816C87.6717 1.53867 87.7677 1.304 87.9597 1.112C88.1517 0.919999 88.3864 0.823999 88.6637 0.823999C88.9304 0.823999 89.1544 0.919999 89.3357 1.112C89.5277 1.304 89.6237 1.53867 89.6237 1.816C89.6237 2.09333 89.5277 2.328 89.3357 2.52C89.1544 2.712 88.9304 2.808 88.6637 2.808ZM89.3677 4.232V13H87.9117V4.232H89.3677ZM95.4652 4.088C96.2225 4.088 96.8839 4.25333 97.4492 4.584C98.0252 4.91467 98.4519 5.33067 98.7292 5.832V4.232H100.201V13.192C100.201 13.992 100.031 14.7013 99.6892 15.32C99.3479 15.9493 98.8572 16.44 98.2172 16.792C97.5879 17.144 96.8519 17.32 96.0092 17.32C94.8572 17.32 93.8972 17.048 93.1292 16.504C92.3612 15.96 91.9079 15.2187 91.7692 14.28H93.2092C93.3692 14.8133 93.6999 15.24 94.2012 15.56C94.7025 15.8907 95.3052 16.056 96.0092 16.056C96.8092 16.056 97.4599 15.8053 97.9612 15.304C98.4732 14.8027 98.7292 14.0987 98.7292 13.192V11.352C98.4412 11.864 98.0145 12.2907 97.4492 12.632C96.8839 12.9733 96.2225 13.144 95.4652 13.144C94.6865 13.144 93.9772 12.952 93.3372 12.568C92.7079 12.184 92.2119 11.6453 91.8492 10.952C91.4865 10.2587 91.3052 9.46933 91.3052 8.584C91.3052 7.688 91.4865 6.904 91.8492 6.232C92.2119 5.54933 92.7079 5.02133 93.3372 4.648C93.9772 4.27467 94.6865 4.088 95.4652 4.088ZM98.7292 8.6C98.7292 7.93867 98.5959 7.36267 98.3292 6.872C98.0625 6.38133 97.6999 6.008 97.2412 5.752C96.7932 5.48533 96.2972 5.352 95.7532 5.352C95.2092 5.352 94.7132 5.48 94.2652 5.736C93.8172 5.992 93.4599 6.36533 93.1932 6.856C92.9265 7.34667 92.7932 7.92267 92.7932 8.584C92.7932 9.256 92.9265 9.84267 93.1932 10.344C93.4599 10.8347 93.8172 11.2133 94.2652 11.48C94.7132 11.736 95.2092 11.864 95.7532 11.864C96.2972 11.864 96.7932 11.736 97.2412 11.48C97.6999 11.2133 98.0625 10.8347 98.3292 10.344C98.5959 9.84267 98.7292 9.26133 98.7292 8.6ZM107.014 4.072C107.675 4.072 108.272 4.216 108.806 4.504C109.339 4.78133 109.755 5.20267 110.054 5.768C110.363 6.33333 110.518 7.02133 110.518 7.832V13H109.078V8.04C109.078 7.16533 108.859 6.49867 108.422 6.04C107.984 5.57067 107.387 5.336 106.63 5.336C105.862 5.336 105.248 5.576 104.79 6.056C104.342 6.536 104.118 7.23467 104.118 8.152V13H102.662V1.16H104.118V5.48C104.406 5.032 104.8 4.68533 105.302 4.44C105.814 4.19467 106.384 4.072 107.014 4.072ZM114.672 5.432V10.6C114.672 11.0267 114.763 11.3307 114.944 11.512C115.125 11.6827 115.44 11.768 115.888 11.768H116.96V13H115.648C114.837 13 114.229 12.8133 113.824 12.44C113.419 12.0667 113.216 11.4533 113.216 10.6V5.432H112.08V4.232H113.216V2.024H114.672V4.232H116.96V5.432H114.672ZM121.828 13.144C121.156 13.144 120.554 13.032 120.02 12.808C119.487 12.5733 119.066 12.2533 118.756 11.848C118.447 11.432 118.276 10.9573 118.244 10.424H119.748C119.791 10.8613 119.994 11.2187 120.356 11.496C120.73 11.7733 121.215 11.912 121.812 11.912C122.367 11.912 122.804 11.7893 123.124 11.544C123.444 11.2987 123.604 10.9893 123.604 10.616C123.604 10.232 123.434 9.94933 123.092 9.768C122.751 9.576 122.223 9.38933 121.508 9.208C120.858 9.03733 120.324 8.86667 119.908 8.696C119.503 8.51467 119.151 8.25333 118.852 7.912C118.564 7.56 118.42 7.10133 118.42 6.536C118.42 6.088 118.554 5.67733 118.82 5.304C119.087 4.93067 119.466 4.63733 119.956 4.424C120.447 4.2 121.007 4.088 121.636 4.088C122.607 4.088 123.391 4.33333 123.988 4.824C124.586 5.31467 124.906 5.98667 124.948 6.84H123.492C123.46 6.38133 123.274 6.01333 122.932 5.736C122.602 5.45867 122.154 5.32 121.588 5.32C121.066 5.32 120.65 5.432 120.34 5.656C120.031 5.88 119.876 6.17333 119.876 6.536C119.876 6.824 119.967 7.064 120.148 7.256C120.34 7.43733 120.575 7.58667 120.852 7.704C121.14 7.81067 121.535 7.93333 122.036 8.072C122.666 8.24267 123.178 8.41333 123.572 8.584C123.967 8.744 124.303 8.98933 124.58 9.32C124.868 9.65067 125.018 10.0827 125.028 10.616C125.028 11.096 124.895 11.528 124.628 11.912C124.362 12.296 123.983 12.6 123.492 12.824C123.012 13.0373 122.458 13.144 121.828 13.144ZM137.221 13L134.565 8.44H132.805V13H131.349V1.848H134.949C135.792 1.848 136.501 1.992 137.077 2.28C137.664 2.568 138.101 2.95733 138.389 3.448C138.677 3.93867 138.821 4.49867 138.821 5.128C138.821 5.896 138.597 6.57333 138.149 7.16C137.712 7.74667 137.051 8.136 136.165 8.328L138.965 13H137.221ZM132.805 7.272H134.949C135.739 7.272 136.331 7.08 136.725 6.696C137.12 6.30133 137.317 5.77867 137.317 5.128C137.317 4.46667 137.12 3.95467 136.725 3.592C136.341 3.22933 135.749 3.048 134.949 3.048H132.805V7.272ZM149.084 8.28C149.084 8.55733 149.068 8.85067 149.036 9.16H142.028C142.081 10.024 142.374 10.7013 142.908 11.192C143.452 11.672 144.108 11.912 144.876 11.912C145.505 11.912 146.028 11.768 146.444 11.48C146.87 11.1813 147.169 10.7867 147.34 10.296H148.908C148.673 11.1387 148.204 11.8267 147.5 12.36C146.796 12.8827 145.921 13.144 144.876 13.144C144.044 13.144 143.297 12.9573 142.636 12.584C141.985 12.2107 141.473 11.6827 141.1 11C140.726 10.3067 140.54 9.50667 140.54 8.6C140.54 7.69333 140.721 6.89867 141.084 6.216C141.446 5.53333 141.953 5.01067 142.604 4.648C143.265 4.27467 144.022 4.088 144.876 4.088C145.708 4.088 146.444 4.26933 147.084 4.632C147.724 4.99467 148.214 5.496 148.556 6.136C148.908 6.76533 149.084 7.48 149.084 8.28ZM147.58 7.976C147.58 7.42133 147.457 6.94667 147.212 6.552C146.966 6.14667 146.63 5.84267 146.204 5.64C145.788 5.42667 145.324 5.32 144.812 5.32C144.076 5.32 143.446 5.55467 142.924 6.024C142.412 6.49333 142.118 7.144 142.044 7.976H147.58ZM154.109 13.144C153.437 13.144 152.835 13.032 152.301 12.808C151.768 12.5733 151.347 12.2533 151.037 11.848C150.728 11.432 150.557 10.9573 150.525 10.424H152.029C152.072 10.8613 152.275 11.2187 152.637 11.496C153.011 11.7733 153.496 11.912 154.093 11.912C154.648 11.912 155.085 11.7893 155.405 11.544C155.725 11.2987 155.885 10.9893 155.885 10.616C155.885 10.232 155.715 9.94933 155.373 9.768C155.032 9.576 154.504 9.38933 153.789 9.208C153.139 9.03733 152.605 8.86667 152.189 8.696C151.784 8.51467 151.432 8.25333 151.133 7.912C150.845 7.56 150.701 7.10133 150.701 6.536C150.701 6.088 150.835 5.67733 151.101 5.304C151.368 4.93067 151.747 4.63733 152.237 4.424C152.728 4.2 153.288 4.088 153.917 4.088C154.888 4.088 155.672 4.33333 156.269 4.824C156.867 5.31467 157.187 5.98667 157.229 6.84H155.773C155.741 6.38133 155.555 6.01333 155.213 5.736C154.883 5.45867 154.435 5.32 153.869 5.32C153.347 5.32 152.931 5.432 152.621 5.656C152.312 5.88 152.157 6.17333 152.157 6.536C152.157 6.824 152.248 7.064 152.429 7.256C152.621 7.43733 152.856 7.58667 153.133 7.704C153.421 7.81067 153.816 7.93333 154.317 8.072C154.947 8.24267 155.459 8.41333 155.853 8.584C156.248 8.744 156.584 8.98933 156.861 9.32C157.149 9.65067 157.299 10.0827 157.309 10.616C157.309 11.096 157.176 11.528 156.909 11.912C156.643 12.296 156.264 12.6 155.773 12.824C155.293 13.0373 154.739 13.144 154.109 13.144ZM167.365 8.28C167.365 8.55733 167.349 8.85067 167.317 9.16H160.309C160.362 10.024 160.655 10.7013 161.189 11.192C161.733 11.672 162.389 11.912 163.157 11.912C163.786 11.912 164.309 11.768 164.725 11.48C165.151 11.1813 165.45 10.7867 165.621 10.296H167.189C166.954 11.1387 166.485 11.8267 165.781 12.36C165.077 12.8827 164.202 13.144 163.157 13.144C162.325 13.144 161.578 12.9573 160.917 12.584C160.266 12.2107 159.754 11.6827 159.381 11C159.007 10.3067 158.821 9.50667 158.821 8.6C158.821 7.69333 159.002 6.89867 159.365 6.216C159.727 5.53333 160.234 5.01067 160.885 4.648C161.546 4.27467 162.303 4.088 163.157 4.088C163.989 4.088 164.725 4.26933 165.365 4.632C166.005 4.99467 166.495 5.496 166.837 6.136C167.189 6.76533 167.365 7.48 167.365 8.28ZM165.861 7.976C165.861 7.42133 165.738 6.94667 165.493 6.552C165.247 6.14667 164.911 5.84267 164.485 5.64C164.069 5.42667 163.605 5.32 163.093 5.32C162.357 5.32 161.727 5.55467 161.205 6.024C160.693 6.49333 160.399 7.144 160.325 7.976H165.861ZM170.743 5.656C170.999 5.15467 171.361 4.76533 171.831 4.488C172.311 4.21067 172.892 4.072 173.575 4.072V5.576H173.191C171.559 5.576 170.743 6.46133 170.743 8.232V13H169.287V4.232H170.743V5.656ZM178.519 11.656L181.239 4.232H182.791L179.351 13H177.655L174.215 4.232H175.783L178.519 11.656ZM192.224 8.28C192.224 8.55733 192.208 8.85067 192.176 9.16H185.168C185.222 10.024 185.515 10.7013 186.048 11.192C186.592 11.672 187.248 11.912 188.016 11.912C188.646 11.912 189.168 11.768 189.584 11.48C190.011 11.1813 190.31 10.7867 190.48 10.296H192.048C191.814 11.1387 191.344 11.8267 190.64 12.36C189.936 12.8827 189.062 13.144 188.016 13.144C187.184 13.144 186.438 12.9573 185.776 12.584C185.126 12.2107 184.614 11.6827 184.24 11C183.867 10.3067 183.68 9.50667 183.68 8.6C183.68 7.69333 183.862 6.89867 184.224 6.216C184.587 5.53333 185.094 5.01067 185.744 4.648C186.406 4.27467 187.163 4.088 188.016 4.088C188.848 4.088 189.584 4.26933 190.224 4.632C190.864 4.99467 191.355 5.496 191.696 6.136C192.048 6.76533 192.224 7.48 192.224 8.28ZM190.72 7.976C190.72 7.42133 190.598 6.94667 190.352 6.552C190.107 6.14667 189.771 5.84267 189.344 5.64C188.928 5.42667 188.464 5.32 187.952 5.32C187.216 5.32 186.587 5.55467 186.064 6.024C185.552 6.49333 185.259 7.144 185.184 7.976H190.72ZM193.602 8.584C193.602 7.688 193.783 6.904 194.146 6.232C194.509 5.54933 195.005 5.02133 195.634 4.648C196.274 4.27467 196.989 4.088 197.778 4.088C198.461 4.088 199.095 4.248 199.682 4.568C200.269 4.87733 200.717 5.288 201.026 5.8V1.16H202.498V13H201.026V11.352C200.738 11.8747 200.311 12.3067 199.746 12.648C199.181 12.9787 198.519 13.144 197.762 13.144C196.983 13.144 196.274 12.952 195.634 12.568C195.005 12.184 194.509 11.6453 194.146 10.952C193.783 10.2587 193.602 9.46933 193.602 8.584ZM201.026 8.6C201.026 7.93867 200.893 7.36267 200.626 6.872C200.359 6.38133 199.997 6.008 199.538 5.752C199.09 5.48533 198.594 5.352 198.05 5.352C197.506 5.352 197.01 5.48 196.562 5.736C196.114 5.992 195.757 6.36533 195.49 6.856C195.223 7.34667 195.09 7.92267 195.09 8.584C195.09 9.256 195.223 9.84267 195.49 10.344C195.757 10.8347 196.114 11.2133 196.562 11.48C197.01 11.736 197.506 11.864 198.05 11.864C198.594 11.864 199.09 11.736 199.538 11.48C199.997 11.2133 200.359 10.8347 200.626 10.344C200.893 9.84267 201.026 9.26133 201.026 8.6ZM210.68 5.864C210.979 5.34133 211.416 4.91467 211.992 4.584C212.568 4.25333 213.224 4.088 213.96 4.088C214.75 4.088 215.459 4.27467 216.088 4.648C216.718 5.02133 217.214 5.54933 217.576 6.232C217.939 6.904 218.12 7.688 218.12 8.584C218.12 9.46933 217.939 10.2587 217.576 10.952C217.214 11.6453 216.712 12.184 216.072 12.568C215.443 12.952 214.739 13.144 213.96 13.144C213.203 13.144 212.536 12.9787 211.96 12.648C211.395 12.3173 210.968 11.896 210.68 11.384V13H209.224V1.16H210.68V5.864ZM216.632 8.584C216.632 7.92267 216.499 7.34667 216.232 6.856C215.966 6.36533 215.603 5.992 215.144 5.736C214.696 5.48 214.2 5.352 213.656 5.352C213.123 5.352 212.627 5.48533 212.168 5.752C211.72 6.008 211.358 6.38667 211.08 6.888C210.814 7.37867 210.68 7.94933 210.68 8.6C210.68 9.26133 210.814 9.84267 211.08 10.344C211.358 10.8347 211.72 11.2133 212.168 11.48C212.627 11.736 213.123 11.864 213.656 11.864C214.2 11.864 214.696 11.736 215.144 11.48C215.603 11.2133 215.966 10.8347 216.232 10.344C216.499 9.84267 216.632 9.256 216.632 8.584ZM227.589 4.232L222.309 17.128H220.805L222.533 12.904L218.997 4.232H220.613L223.365 11.336L226.085 4.232H227.589ZM234.07 2.808C233.793 2.808 233.558 2.712 233.366 2.52C233.174 2.328 233.078 2.09333 233.078 1.816C233.078 1.53867 233.174 1.304 233.366 1.112C233.558 0.919999 233.793 0.823999 234.07 0.823999C234.337 0.823999 234.561 0.919999 234.742 1.112C234.934 1.304 235.03 1.53867 235.03 1.816C235.03 2.09333 234.934 2.328 234.742 2.52C234.561 2.712 234.337 2.808 234.07 2.808ZM234.774 4.232V13H233.318V4.232H234.774ZM238.711 5.864C239.01 5.34133 239.447 4.91467 240.023 4.584C240.599 4.25333 241.255 4.088 241.991 4.088C242.781 4.088 243.49 4.27467 244.119 4.648C244.749 5.02133 245.245 5.54933 245.607 6.232C245.97 6.904 246.151 7.688 246.151 8.584C246.151 9.46933 245.97 10.2587 245.607 10.952C245.245 11.6453 244.743 12.184 244.103 12.568C243.474 12.952 242.77 13.144 241.991 13.144C241.234 13.144 240.567 12.9787 239.991 12.648C239.426 12.3173 238.999 11.896 238.711 11.384V13H237.255V1.16H238.711V5.864ZM244.663 8.584C244.663 7.92267 244.53 7.34667 244.263 6.856C243.997 6.36533 243.634 5.992 243.175 5.736C242.727 5.48 242.231 5.352 241.687 5.352C241.154 5.352 240.658 5.48533 240.199 5.752C239.751 6.008 239.389 6.38667 239.111 6.888C238.845 7.37867 238.711 7.94933 238.711 8.6C238.711 9.26133 238.845 9.84267 239.111 10.344C239.389 10.8347 239.751 11.2133 240.199 11.48C240.658 11.736 241.154 11.864 241.687 11.864C242.231 11.864 242.727 11.736 243.175 11.48C243.634 11.2133 243.997 10.8347 244.263 10.344C244.53 9.84267 244.663 9.256 244.663 8.584ZM254.148 6.52V7.752H247.764V6.52H254.148ZM258.656 5.432V10.6C258.656 11.0267 258.747 11.3307 258.928 11.512C259.11 11.6827 259.424 11.768 259.872 11.768H260.944V13H259.632C258.822 13 258.214 12.8133 257.808 12.44C257.403 12.0667 257.2 11.4533 257.2 10.6V5.432H256.064V4.232H257.2V2.024H258.656V4.232H260.944V5.432H258.656ZM267.061 4.072C267.722 4.072 268.319 4.216 268.853 4.504C269.386 4.78133 269.802 5.20267 270.101 5.768C270.41 6.33333 270.565 7.02133 270.565 7.832V13H269.125V8.04C269.125 7.16533 268.906 6.49867 268.469 6.04C268.031 5.57067 267.434 5.336 266.677 5.336C265.909 5.336 265.295 5.576 264.837 6.056C264.389 6.536 264.165 7.23467 264.165 8.152V13H262.709V1.16H264.165V5.48C264.453 5.032 264.847 4.68533 265.349 4.44C265.861 4.19467 266.431 4.072 267.061 4.072ZM280.943 8.28C280.943 8.55733 280.927 8.85067 280.895 9.16H273.887C273.94 10.024 274.234 10.7013 274.767 11.192C275.311 11.672 275.967 11.912 276.735 11.912C277.364 11.912 277.887 11.768 278.303 11.48C278.73 11.1813 279.028 10.7867 279.199 10.296H280.767C280.532 11.1387 280.063 11.8267 279.359 12.36C278.655 12.8827 277.78 13.144 276.735 13.144C275.903 13.144 275.156 12.9573 274.495 12.584C273.844 12.2107 273.332 11.6827 272.959 11C272.586 10.3067 272.399 9.50667 272.399 8.6C272.399 7.69333 272.58 6.89867 272.943 6.216C273.306 5.53333 273.812 5.01067 274.463 4.648C275.124 4.27467 275.882 4.088 276.735 4.088C277.567 4.088 278.303 4.26933 278.943 4.632C279.583 4.99467 280.074 5.496 280.415 6.136C280.767 6.76533 280.943 7.48 280.943 8.28ZM279.439 7.976C279.439 7.42133 279.316 6.94667 279.071 6.552C278.826 6.14667 278.49 5.84267 278.063 5.64C277.647 5.42667 277.183 5.32 276.671 5.32C275.935 5.32 275.306 5.55467 274.783 6.024C274.271 6.49333 273.978 7.144 273.903 7.976H279.439ZM293.409 4.072C294.091 4.072 294.699 4.216 295.233 4.504C295.766 4.78133 296.187 5.20267 296.497 5.768C296.806 6.33333 296.961 7.02133 296.961 7.832V13H295.521V8.04C295.521 7.16533 295.302 6.49867 294.865 6.04C294.438 5.57067 293.857 5.336 293.121 5.336C292.363 5.336 291.761 5.58133 291.313 6.072C290.865 6.552 290.641 7.25067 290.641 8.168V13H289.201V8.04C289.201 7.16533 288.982 6.49867 288.545 6.04C288.118 5.57067 287.537 5.336 286.801 5.336C286.043 5.336 285.441 5.58133 284.993 6.072C284.545 6.552 284.321 7.25067 284.321 8.168V13H282.865V4.232H284.321V5.496C284.609 5.03733 284.993 4.68533 285.473 4.44C285.963 4.19467 286.502 4.072 287.089 4.072C287.825 4.072 288.475 4.23733 289.041 4.568C289.606 4.89867 290.027 5.384 290.305 6.024C290.55 5.40533 290.955 4.92533 291.521 4.584C292.086 4.24267 292.715 4.072 293.409 4.072ZM307.349 8.28C307.349 8.55733 307.333 8.85067 307.301 9.16H300.293C300.347 10.024 300.64 10.7013 301.173 11.192C301.717 11.672 302.373 11.912 303.141 11.912C303.771 11.912 304.293 11.768 304.709 11.48C305.136 11.1813 305.435 10.7867 305.605 10.296H307.173C306.939 11.1387 306.469 11.8267 305.765 12.36C305.061 12.8827 304.187 13.144 303.141 13.144C302.309 13.144 301.563 12.9573 300.901 12.584C300.251 12.2107 299.739 11.6827 299.365 11C298.992 10.3067 298.805 9.50667 298.805 8.6C298.805 7.69333 298.987 6.89867 299.349 6.216C299.712 5.53333 300.219 5.01067 300.869 4.648C301.531 4.27467 302.288 4.088 303.141 4.088C303.973 4.088 304.709 4.26933 305.349 4.632C305.989 4.99467 306.48 5.496 306.821 6.136C307.173 6.76533 307.349 7.48 307.349 8.28ZM305.845 7.976C305.845 7.42133 305.723 6.94667 305.477 6.552C305.232 6.14667 304.896 5.84267 304.469 5.64C304.053 5.42667 303.589 5.32 303.077 5.32C302.341 5.32 301.712 5.55467 301.189 6.024C300.677 6.49333 300.384 7.144 300.309 7.976H305.845ZM312.375 13.144C311.703 13.144 311.1 13.032 310.567 12.808C310.034 12.5733 309.612 12.2533 309.303 11.848C308.994 11.432 308.823 10.9573 308.791 10.424H310.295C310.338 10.8613 310.54 11.2187 310.903 11.496C311.276 11.7733 311.762 11.912 312.359 11.912C312.914 11.912 313.351 11.7893 313.671 11.544C313.991 11.2987 314.151 10.9893 314.151 10.616C314.151 10.232 313.98 9.94933 313.639 9.768C313.298 9.576 312.77 9.38933 312.055 9.208C311.404 9.03733 310.871 8.86667 310.455 8.696C310.05 8.51467 309.698 8.25333 309.399 7.912C309.111 7.56 308.967 7.10133 308.967 6.536C308.967 6.088 309.1 5.67733 309.367 5.304C309.634 4.93067 310.012 4.63733 310.503 4.424C310.994 4.2 311.554 4.088 312.183 4.088C313.154 4.088 313.938 4.33333 314.535 4.824C315.132 5.31467 315.452 5.98667 315.495 6.84H314.039C314.007 6.38133 313.82 6.01333 313.479 5.736C313.148 5.45867 312.7 5.32 312.135 5.32C311.612 5.32 311.196 5.432 310.887 5.656C310.578 5.88 310.423 6.17333 310.423 6.536C310.423 6.824 310.514 7.064 310.695 7.256C310.887 7.43733 311.122 7.58667 311.399 7.704C311.687 7.81067 312.082 7.93333 312.583 8.072C313.212 8.24267 313.724 8.41333 314.119 8.584C314.514 8.744 314.85 8.98933 315.127 9.32C315.415 9.65067 315.564 10.0827 315.575 10.616C315.575 11.096 315.442 11.528 315.175 11.912C314.908 12.296 314.53 12.6 314.039 12.824C313.559 13.0373 313.004 13.144 312.375 13.144ZM318.094 13.096C317.817 13.096 317.582 13 317.39 12.808C317.198 12.616 317.102 12.3813 317.102 12.104C317.102 11.8267 317.198 11.592 317.39 11.4C317.582 11.208 317.817 11.112 318.094 11.112C318.361 11.112 318.585 11.208 318.766 11.4C318.958 11.592 319.054 11.8267 319.054 12.104C319.054 12.3813 318.958 12.616 318.766 12.808C318.585 13 318.361 13.096 318.094 13.096Z" fill="#44566C"/>
</svg>
